<?xml version="1.0" standalone="no"?>
<!DOCTYPE svg PUBLIC "-//W3C//DTD SVG 20010904//EN"
 "http://www.w3.org/TR/2001/REC-SVG-20010904/DTD/svg10.dtd">
<svg version="1.0" xmlns="http://www.w3.org/2000/svg"
 width="512.000000pt" height="512.000000pt" viewBox="0 0 512.000000 512.000000"
 preserveAspectRatio="xMidYMid meet">
<metadata>
Created by potrace 1.16, written by Peter Selinger 2001-2019
</metadata>
<g transform="translate(0.000000,512.000000) scale(0.100000,-0.100000)"
fill="#c6c4d3" stroke="none">
<path d="M2495 4988 c-351 -39 -713 -171 -1016 -369 -753 -493 -1162 -1376
-1048 -2268 5 -41 10 -75 11 -77 2 -1 36 8 76 21 39 14 105 27 145 31 l73 6
-7 62 c-45 374 14 761 164 1088 l41 90 17 -118 c40 -274 178 -552 335 -675
110 -86 199 -127 422 -196 139 -43 208 -73 251 -109 63 -52 87 -146 57 -217
-15 -35 -89 -109 -154 -152 -23 -15 -42 -31 -42 -35 0 -7 42 -20 190 -58 29
-8 51 -3 130 25 146 53 384 127 493 153 53 13 97 27 97 30 0 3 -77 39 -171 79
-277 120 -314 169 -354 479 -31 243 -55 261 -266 206 -82 -21 -105 -24 -132
-15 -42 14 -91 64 -111 113 -48 114 27 263 166 334 47 24 60 26 128 21 138 -9
237 -65 398 -224 112 -111 144 -129 203 -113 106 29 219 215 219 359 0 58 -4
63 -67 95 -52 26 -83 65 -83 104 0 32 60 111 119 155 31 24 97 71 146 105 118
80 155 119 162 170 5 36 2 44 -37 85 -33 37 -79 65 -237 143 -147 73 -207 108
-243 144 -122 119 -46 200 218 230 162 18 372 -14 632 -97 l115 -37 90 -91
c71 -71 100 -109 137 -180 69 -134 100 -246 102 -375 1 -98 -1 -109 -29 -165
-66 -131 -216 -251 -405 -326 -149 -59 -211 -110 -264 -215 -50 -100 -54 -251
-9 -313 19 -26 103 -72 228 -126 78 -33 151 -93 171 -142 8 -18 14 -67 14
-110 1 -123 38 -183 147 -238 61 -30 166 -55 236 -55 26 0 62 -7 80 -16 73
-37 137 -123 137 -184 0 -36 -19 -57 -108 -114 -37 -24 -75 -52 -85 -64 -41
-46 -62 -169 -34 -204 6 -9 41 -28 76 -42 74 -30 111 -60 111 -91 0 -12 -12
-59 -26 -106 -32 -108 -29 -163 15 -225 l31 -45 -37 -32 c-243 -214 -569 -380
-889 -452 -59 -13 -109 -26 -111 -29 -3 -3 0 -44 7 -93 6 -48 8 -114 5 -145
-8 -68 -16 -66 118 -38 446 91 855 310 1177 630 328 325 552 729 649 1170 69
318 69 696 0 1020 -74 341 -259 718 -487 990 -398 476 -953 773 -1564 840
-114 12 -409 11 -523 -2z"/>
<path d="M600 2066 c-56 -16 -112 -45 -167 -85 -48 -34 -64 -82 -44 -129 14
-33 -17 -11 409 -287 400 -259 374 -227 242 -295 -41 -21 -140 -75 -219 -119
l-143 -81 -167 87 c-258 136 -256 135 -325 135 -72 -1 -138 -24 -166 -60 -39
-48 -28 -82 85 -285 58 -103 105 -189 105 -190 0 -2 -21 -25 -46 -51 -25 -27
-52 -63 -60 -82 -54 -128 122 -213 364 -174 205 32 829 181 1177 281 584 168
1073 347 1405 515 352 178 530 345 530 499 -1 102 -51 162 -170 203 l-55 19
-280 -128 c-154 -71 -281 -129 -282 -129 -2 0 -3 24 -3 53 l0 53 189 84 c104
47 187 88 184 93 -8 13 -228 7 -319 -8 -169 -29 -401 -97 -635 -186 -72 -27
-140 -49 -150 -49 -10 0 -292 72 -626 161 -524 139 -620 161 -698 165 -56 2
-107 -1 -135 -10z"/>
<path d="M2420 874 c-179 -64 -333 -124 -344 -134 -12 -12 -17 -26 -13 -42 6
-22 388 -465 467 -540 50 -49 89 -50 177 -6 108 53 173 151 173 259 0 81 -59
551 -71 565 -6 8 -23 14 -38 13 -14 0 -172 -52 -351 -115z"/>
</g>
</svg>
