<svg xmlns="http://www.w3.org/2000/svg" width="260" height="280"><g fill="none" fill-rule="evenodd"><path d="M0 0h260v280H0z"/><path fill="#90D3FF" fill-rule="nonzero" d="M94.252 224.634c0 33.616 77.688 33.112 73.046-.65l-73.046.65z"/><path fill="#FFF" fill-rule="nonzero" d="M112.34 229.092c0 20.054 33.667 19.754 31.655-.387l-31.655.387z"/><path fill="#38AFFF" fill-rule="nonzero" d="M107.74 237.5c-1.155-.114-2.253-1.716-2.767-3.128-.514-1.413-.443-2.637-.677-3.706-.233-1.07-.771-1.984-1.449-3.447-.677-1.463-1.495-3.473-1.884-4.895-.388-1.42-.349-2.253-.398-2.939a6.699 6.699 0 00-.274-1.497c-.087-.272-.121-.274-1.152.747-1.03 1.021-3.057 3.064-5.025 5.916-1.97 2.853-3.882 6.513-4.862 9.824-.979 3.311-1.027 6.272-.381 8.76.646 2.49 1.987 4.505 3.159 5.838 1.171 1.334 2.174 1.985 3.45 2.691a23.636 23.636 0 005.136 2.14c2.311.672 5.386 1.255 11.175.763 5.788-.49 14.292-2.057 16.27-4.363 1.977-2.305-2.571-5.349-4.776-7.243-2.205-1.893-2.067-2.634-2.74-3.412-.672-.778-2.155-1.593-3.828-2.38-1.673-.787-3.535-1.545-5.073-1.237-1.537.307-2.749 1.681-3.904 1.568"/><path fill="#FFB640" fill-rule="nonzero" d="M108.68 175.727l-9.774 43.63c-1.63 7.279 10.59 14.118 31.46 14.319 21.676.209 34.654-4.355 32.943-13.566l-6.774-36.472.18-9.101-3.319-7.802-44.716 8.992z"/><path fill="#FFE1A5" fill-rule="nonzero" d="M100.065 212.582l-.221 1.118c-2.326 11.767 9.652 17.4 30.52 17.6 21.679.21 35.137-1.763 32.946-13.566l-.176-.946c-.562 7.454-6.49 11.585-32.82 11.25-23.304-.296-29.093-5.252-30.25-15.456"/><path fill="#90D3FF" fill-rule="nonzero" d="M119.386 177.617l10.407 10.656 11.281-11.469z"/><path fill="#90D3FF" fill-rule="nonzero" d="M74.632 88.836c-1.603-2.091-2.65-4.238-3.301-7.267-.722-3.361-.955-7.808 1.356-14.171 2.312-6.363 7.169-14.642 15.517-22.091 8.349-7.449 20.189-14.067 27.916-17.297 7.728-3.229 11.343-3.071 13.69-1.239.72.562 1.322 1.281 1.816 2.114.976-2.733 2.535-5.079 4.79-6.2 2.79-1.388 6.648-.902 14.302 3.658 7.653 4.56 19.103 13.194 26.717 22.026 7.613 8.831 11.387 17.86 12.784 24.547 1.395 6.687.412 11.03-.91 14.216-1.321 3.187-2.982 5.215-5.395 7.16-.45.363-.927.722-1.437 1.074 10.328 12.605 15.478 26.731 15.059 35.672-1.438 30.65-32.25 52.356-75.318 47.792-43.068-4.563-68.471-31.773-63.63-62.515 1.344-8.534 7.001-18.692 16.044-27.479zm52.963-20.724c1.536.037 3.09.12 4.661.254-.408-5.408-.83-10.97-1.165-15.73l-.166.76c-.915 4.159-2.107 9.382-3.33 14.716zm-19.928 111.29c.152 16.796-1.024 11.394-.727 29.855-1.642 4.727-9.473 9.783-21.424 13.423-4.047 1.232-8.645 1.915-11.467 5.222-2.584 1.386-5.448-1.254-4.847-4.192-1.417-.205-2.45-2.587-1.824-3.996.824-1.847 2.59-3.308 3.41-3.7-1.928-2.251-1.474-4.794.422-6.396 1.12-.946 2.94-1.101 4.988-.099 4.576-4.678 8.472-2.913 8.467 2.543l9.573-9.77 13.43-22.89z"/><path fill="#C7E9FF" fill-rule="nonzero" d="M81.028 83.309c-.688-.745-1.323-1.648-1.884-2.722-1.677-3.21-2.697-7.956-1.244-13.125 1.454-5.169 5.38-10.763 9.168-14.784 3.787-4.02 7.436-6.469 10.799-8.352 3.362-1.883 6.438-3.2 8.733-3.96 2.294-.76 3.807-.963 4.28-.269.472.694-.095 2.285-1.35 4.772-1.253 2.487-3.192 5.87-5.042 8.677-1.85 2.807-3.61 5.038-5.264 8.191-1.656 3.155-3.208 7.232-3.654 10.361a14.47 14.47 0 00-.14 2.553 74.087 74.087 0 00-14.402 8.658zm81.608-5.18c.53-1.339.986-2.893.991-4.912.01-3.172-1.093-7.491-2.466-10.92-1.374-3.43-3.018-5.966-4.67-9.09-1.653-3.124-3.313-6.833-4.337-9.527-1.023-2.694-1.41-4.371-.754-4.965.656-.594 2.355-.103 4.856 1.087s5.805 3.082 9.342 5.585c3.537 2.503 7.31 5.619 10.98 10.313 3.67 4.693 7.24 10.965 8.046 16.342.808 5.377-1.146 9.86-3.597 12.705-1.548 1.794-3.294 2.936-5.101 3.544-3.918-3.745-8.352-7.204-13.29-10.163z"/><path fill="#FFB640" fill-rule="nonzero" d="M107.862 178.512c-4.172 8.48-10.439 14.649-14.652 24.238 5.571-3.055 11.877-.026 13.843 6.729l.6-16.25.21-14.717z"/><path fill="#FFE1A5" fill-rule="nonzero" d="M95.796 197.296c-.4.844-.69 1.753-1.11 2.585 6.415-1.841 10.925 2.23 13.048 5.715-.19-.954.358-3.745.085-4.93-4.21-4.586-9.448-4.325-12.023-3.37"/><path fill="#FF9100" fill-rule="nonzero" d="M121.478 175.694l9.164 13.266-.926.953-5.05-3.992c-4.816 1.914-8.085 3.438-10.25 9.489-5.758-5.452-6.704-11.055-3.626-19.95l10.688.234z"/><path fill="#FF9100" fill-rule="nonzero" d="M142.37 173.012l-17.579 19.965 14.062-9.14c4.816.84 6.273 1.26 9.813 6.864 5.757-6.735 8.516-12.485 6.75-20.401l-13.047 2.712z"/><path fill="#C7E9FF" fill-rule="nonzero" d="M65.263 134.381c11.152-2.568 29.735 5.993 42.546 11.19 3.138 1.28 6.42 2.7 9.758 4.337 3.608-.902 7.114-1.603 10.451-2.196 21.123-3.29 41.623-6.623 52.176-3.185 9.136 2.975 6.081 11.331-.802 18.472-5.677 5.891-14.04 10.795-19.612 12.574-10.818 3.453-23.54 4.752-37.563 3.257-26.02-2.774-45.609-13.825-55.927-28.804-2.487-3.61-6.084-14.48-1.027-15.645"/><path fill="#FFF" fill-rule="nonzero" d="M141.245 139.14c4.292 27.409-52.542 21.386-42.601-4.514 1.87-4.875 6.129-8.754 10.944-9.97 7.852-1.983 16.914-1.053 24.007 2.799 4.032 2.19 6.908 6.947 7.65 11.685"/><path fill="#FF8797" fill-rule="nonzero" d="M119.934 137.612l4.562-2.846c1.764-1.1 2.148-2.34.177-3.685-3.59-2.451-8.762-2.873-12.65-1.34-2.22.875-2.094 2.194-.599 3.64l3.864 3.739c1.626 1.573 2.726 1.689 4.646.492"/><path fill="#333" fill-rule="nonzero" d="M98.174 76.295c-2.67.35-5.648 1.55-7.544 3.218-1.895 1.667-2.708 3.8-2.511 4.762.197.96 1.404.749 2.992.402 1.587-.35 3.555-.833 5.785-1.102 2.23-.268 4.723-.32 6.176-.902 1.455-.581 1.869-1.692 2.11-2.734.243-1.042.31-2.017-.835-2.755-1.146-.737-3.504-1.24-6.173-.89m55.297 5.382c2.536.9 5.197 2.7 6.702 4.727 1.504 2.028 1.852 4.284 1.457 5.183-.394.898-1.53.438-3.01-.235-1.48-.672-3.301-1.56-5.425-2.29-2.125-.728-4.551-1.302-5.85-2.175-1.3-.873-1.473-2.046-1.491-3.116-.018-1.07.12-2.037 1.395-2.518 1.275-.481 3.686-.478 6.222.424"/><path fill="#38AFFF" fill-rule="nonzero" d="M93.226 98.115c-8.868.04-18.168 8.082-20.772 17.96-.759 2.879-.865 5.595-.416 7.999 6.209 5.098 12.022 7.225 26.712 2.363 2.696-2.956 4.784-6.587 5.817-10.507 2.604-9.88-2.474-17.855-11.341-17.815m66.784 6.555c9.687 2.004 17.538 11.65 17.536 21.543 0 2.923-.688 5.546-1.905 7.738-6.627 3.864-21.999 1.702-29.973-4.08-2.015-3.328-3.2-7.114-3.203-10.916-.009-9.793 7.858-16.29 17.545-14.285"/><path fill="#333" fill-rule="nonzero" d="M71.886 123.228c9.124 4.2 16.96 4.157 27.493 2.602-.45.86-2.449 2.082-5.593 2.765-7.768 1.69-15.447 2.612-21.593-3.685l-.307-1.682zm104.474 9.88c-11.192 1.939-19.75.16-30.821-3.643.243.912 2.078 2.507 5.319 3.849 8.009 3.316 16.14 5.888 24.68 1.313l.822-1.518z"/><path fill="#FFF" fill-rule="nonzero" d="M76.346 211.702c.087.631.026.978-.19 1.492-1.086 1.699 1.314 2.119 2.36 1.403.172-.412.244-.739.217-1.171a2.954 2.954 0 01-.658-.145c-.743-.258-1.297-.805-1.729-1.579"/><path fill="#38AFFF" fill-rule="nonzero" d="M72.956 217.275c.551 2.591.518 2.732 1.818 4.746l-1.58-1.347c-2.185.876-2.619 1.403-3.92 3.131.982-2.698 1.47-3.072 3.57-4.797l.112-1.733zm-2.475-1.763c1.143-1.094 2.213-1.16 3.734-.154-1.444.013-2.192.052-3.444.648l-.29-.494z"/><path fill="#90D3FF" fill-rule="nonzero" d="M114.56 251.888c-5.55-.892-4.794-5.281-5.898-12.254-1.366-8.623 6.407-10.35 10.679-9.147 2.803.788 5.092 1.794 12.724.494 7.977-1.36 14.586-7.392 20.309-11.165 5.432-3.191 11.444-1.228 13.929.728 1.705 1.343 3.283 3.976 1.559 7.064 1.667 3.284-.363 8.526-5.085 10.838-.896 2.349-3.346 4.947-5.89 6.358-10.34 5.73-28.361 6.58-42.326 7.084"/><path fill="#38AFFF" fill-rule="nonzero" d="M158.722 231.559c3.71-.205 7.68-1.703 9.26-4.178a7.285 7.285 0 01-.12.229c.513.722.645 1.572.573 2.47-2.322 1.942-6.29 2.663-9.713 1.479"/><path fill="#90D3FF" fill-rule="nonzero" d="M155.625 240.081c2.643.105 5.113-.554 7.127-1.575a9.565 9.565 0 01-1.084 1.971c-1.837.357-3.966.341-6.043-.396"/><path fill="#38AFFF" fill-rule="nonzero" d="M111.671 231.508c2.332-1.482 5.466-1.641 7.67-1.021 2.082.586 3.881 1.29 7.8 1.082 1.957 1.6 4.447 2.907 6.662 3.818 2.76 1.135 5.093 1.656 7.322 1.719 2.23.062 4.355-.334 5.98-.521 1.625-.188 2.75-.167 3.75.062s1.875.667 2.906 1c1.031.334 2.22.563 3.417.646a18.68 18.68 0 003.448-.104c1.041-.125 1.916-.313 2.906-.74a12.38 12.38 0 002.504-1.47 10.634 10.634 0 01-3.259 2.467c-.897 2.348-3.346 4.948-5.89 6.357-3.717 2.06-8.428 3.49-13.586 4.5-5.414-.342-10.526-1.403-15.05-3.375-5.188-2.26-9.605-5.718-12.803-9.281-1.55-1.728-2.816-3.48-3.777-5.14"/><path fill="#90D3FF" fill-rule="nonzero" d="M146.114 254.968c-7.811 2.58-22.483 3.896-34.803-1.953-1.737-.824-3.448-1.825-5.179-2.92-2.458-1.556-4.752-4.293-5.51-6.688-4.582-2.582-6.304-7.934-4.45-11.114-1.543-3.183.186-5.72 1.965-6.962 2.594-1.81 8.71-3.422 13.95.08 5.493 4.098 11.742 10.501 19.627 12.321 7.544 1.741 9.887.87 12.731.244 2.835-.622 7.541.22 9.645 3.177 3.153.979 7.046.737 8.643-2.617.118-.082.232-.163.344-.243 4.506-2.384 6.416-7.472 4.785-10.684 1.258-2.255.757-4.266-.268-5.71-1.47-1.52-2.594-3.462-3.053-3.918-.487-.485-.26-1.203-.303-1.47-.043-.268.006-.286.916.304 3.566 2.314 5.907 4.744 9.07 13.338 2.526 6.865 2.4 14.113-2.24 18.995-4.798 5.045-12.975 5.993-19.67 6.131-1.891.04-4.029-.082-6.2-.311z"/><path fill="#38AFFF" fill-rule="nonzero" d="M105.067 236.766c-3.69-.42-7.568-2.145-9.002-4.707.034.078.07.156.108.235-.42.719-.654 1.549-.716 2.432 2.206 2.074 6.126 3.024 9.61 2.04m2.6 8.687c-2.645-.048-5.072-.849-7.025-1.985.216.663.548 1.35.968 2.03 1.813.463 3.94.57 6.057-.045m60.77-15.315c-.003-.907-.19-1.77-.575-2.528 1.258-2.255.757-4.267-.269-5.712-1.47-1.518-2.594-3.461-3.052-3.917-.488-.485-.259-1.203-.303-1.471-.043-.267.007-.284.915.305 3.567 2.315 5.91 4.744 9.071 13.339.101.275.197.55.29.828-1.559 4.32-4.158 2.346-6.077-.844"/><path fill="#38AFFF" fill-rule="nonzero" d="M162.675 238.43c.117-.081.77-.701.683-.512 4.507-2.383 6.135-7.097 4.504-10.308a5.793 5.793 0 00.69-1.96l.229-.02c4.112 7.005-.792 12.51-7.12 14.175.17-.244.876-1.084 1.014-1.374"/><path fill="#90D3FF" fill-rule="nonzero" d="M159.851 178.252l7.031 22.404 6.297 10.613c2.091-5.255 6.101-5.511 8.714.374 2.352-.63 4.166.812 4.878 2.067 1.206 2.126.705 4.64-1.938 6.081 1.054.418 3.36 2.176 3.462 4.169.078 1.518-1.769 3.382-3.183 3.094.085 2.647-4.175 4.417-6.109 2.261-2.542-3.651-7.133-5.29-10.772-7.451-9.898-5.877-16.692-11.86-15.832-18.282.966-6.829-1.429-9.39 7.452-25.33"/><path fill="#FFF" fill-rule="nonzero" d="M180.971 213.73c-.313.556-.195 1.085-.177 1.635.403 1.942-2.017 1.524-2.744.507-.01-.44.04-.768.224-1.16.23.055.456.083.674.087.795.011 1.433-.349 2.023-1.07"/><path fill="#38AFFF" fill-rule="nonzero" d="M181.637 218.862c-.534 1.236-.791 3.427-2.03 5.013l1.275-.832c1.8.651 3.139 1.481 4.02 3.514.145-2.728-1.36-3.598-2.962-4.683l-.303-3.012zm3.67.566c-.76-1.235-1.818-1.514-3.716-.9 1.453.306 2.195.493 3.244 1.295l.471-.395z"/><path fill="#FFB640" fill-rule="nonzero" d="M159.585 175.262c3.353 8.582 6.983 18.388 9.25 27.738-4.67-.055-14.924.567-17.902 6.322l1.25-17.614 3.742-15.012 3.66-1.434z"/><path fill="#FFE1A5" fill-rule="nonzero" d="M167.216 196.92c.289.845.584 2.379.894 3.21-6.171-1.84-14.406 1.669-16.674 4.966.314-.954.82-4.557.562-5.492 4.812-4.586 12.768-3.638 15.218-2.683"/><path fill="#FF9100" fill-rule="nonzero" d="M124.579 192.929l-1.058 9.984c-.186 1.753.453 1.949 1.339 1.979l4.258.142c1.528.052 1.689-.064 1.835-1.984.4-5.25.857-10.865 1.106-16.142l-7.48 6.021z"/><path fill="#FFB640" fill-rule="nonzero" d="M127.9 192.295a1.688 1.688 0 10.399 3.352 1.688 1.688 0 00-.398-3.352"/><path fill="#333" fill-rule="nonzero" d="M115.418 146.033c-1.193-.278-2.251-.836-3.004-.938-.754-.102-1.202.25-1.4.68-.2.428-.146.932.426 1.669.572.736 1.664 1.706 2.745 2.392 1.08.686 2.152 1.089 3.304 1.18 1.15.094 2.383-.125 3.343-.49a5.996 5.996 0 002.176-1.406c.53-.533.9-1.088 1.097-1.58.196-.493.217-.922.045-1.288-.173-.366-.538-.67-1.384-.65-.846.02-2.172.365-3.5.538-1.327.172-2.655.172-3.848-.107"/><path fill="#38AFFF" fill-rule="nonzero" d="M168.469 229.98l-.021-.08c.04-.828-.106-1.611-.582-2.284l-.004-.007.003-.006.002-.004.002-.003.002-.004.002-.004.002-.003.002-.004.002-.003.002-.004.002-.004.002-.003.002-.004.002-.003.002-.004.002-.003.002-.004.002-.003.002-.004.002-.004.002-.003.002-.004.002-.003.002-.004.002-.004v-.003l.003-.004.002-.003.002-.004.002-.003.002-.004.002-.004.002-.003.003-.007.002-.004.027-.05v-.003l.003-.004.002-.003.002-.004.002-.003.002-.004v-.003l.003-.004.002-.003.002-.004.002-.003v-.004l.003-.004.002-.003c1.525-2.99-.016-5.53-1.68-6.837a11.636 11.636 0 00-2.1-1.215c.764-.25 4.115.445 5.493 3.026 1.108 2.077.91 4.748-1.227 7.624zm-18.368 8.282c2.74 1.433 4.257 2.667 5 5.188.687-.969 1.666-1.644 3.133-1.946l-2.258-2.492-5.875-.75z"/></g></svg>